<svg width="20" height="20" viewBox="0 0 20 20" fill="none" xmlns="http://www.w3.org/2000/svg">
<path fill-rule="evenodd" clip-rule="evenodd" d="M0.25 10C0.25 4.61554 4.61554 0.25 10 0.25C12.5699 0.25 14.9004 1.25246 16.6394 2.87324C16.7883 3.01197 16.8744 3.20524 16.878 3.4087C16.8816 3.61216 16.8023 3.80834 16.6584 3.95223L14.1128 6.49788C13.8319 6.77876 13.3807 6.79193 13.084 6.52792C12.2608 5.79565 11.1837 5.35 10 5.35C7.43206 5.35 5.35 7.43206 5.35 10C5.35 12.5679 7.43206 14.65 10 14.65C11.6238 14.65 13.0521 13.8153 13.8828 12.55H10C9.58579 12.55 9.25 12.2142 9.25 11.8V8.2C9.25 7.78579 9.58579 7.45 10 7.45H18.8249C19.183 7.45 19.4911 7.70305 19.5607 8.05425C19.6832 8.67275 19.75 9.34798 19.75 10C19.75 15.3845 15.3845 19.75 10 19.75C4.61554 19.75 0.25 15.3845 0.25 10ZM10 1.75C5.44396 1.75 1.75 5.44396 1.75 10C1.75 14.556 5.44396 18.25 10 18.25C14.556 18.25 18.25 14.556 18.25 10C18.25 9.65248 18.2275 9.29605 18.1853 8.95H10.75V11.05H15.0864C15.3299 11.05 15.5583 11.1683 15.6988 11.3671C15.8394 11.566 15.8746 11.8208 15.7933 12.0503C14.9491 14.4346 12.6795 16.15 10 16.15C6.60364 16.15 3.85 13.3964 3.85 10C3.85 6.60364 6.60364 3.85 10 3.85C11.3133 3.85 12.5272 4.26519 13.5236 4.96571L15.0229 3.46644C13.6306 2.39163 11.8918 1.75 10 1.75Z" fill="#828282"/>
</svg>
