<svg width="107" height="87" viewBox="0 0 107 87" fill="none" xmlns="http://www.w3.org/2000/svg">
<path opacity="0.6" d="M85.4715 37.7966C92.1121 38.6432 97.3604 41.2885 101.216 45.7327C105.072 50.1768 107 55.8908 107 62.8745C107 69.8582 104.751 75.6779 100.252 80.3337C95.7538 84.7779 89.6487 87 81.9369 87C74.4394 87 68.3343 84.6721 63.6216 80.0163C59.1231 75.3605 56.8739 68.1652 56.8739 58.4303C56.8739 48.6955 61.0511 37.585 69.4054 25.099C77.974 12.4014 86.8639 4.1479 96.0751 0.338604C97.3604 -0.507907 99.2883 0.232792 101.859 2.5607C104.429 4.67697 105.715 6.4758 105.715 7.95718C96.2893 14.5176 89.5415 24.4641 85.4715 37.7966ZM28.5976 37.7966C35.2382 38.6432 40.4865 41.2885 44.3423 45.7327C48.1982 50.1768 50.1261 55.8908 50.1261 62.8745C50.1261 69.8582 47.8769 75.6779 43.3784 80.3337C38.8799 84.7779 32.7748 87 25.0631 87C17.5656 87 11.4605 84.6721 6.74775 80.0163C2.24925 75.3605 0 68.1652 0 58.4303C0 48.6955 4.17718 37.585 12.5315 25.099C21.1001 12.4014 29.99 4.1479 39.2012 0.338604C40.4865 -0.507907 42.4144 0.232792 44.985 2.5607C47.5556 4.67697 48.8408 6.4758 48.8408 7.95718C39.4154 14.5176 32.6677 24.4641 28.5976 37.7966Z" fill="#F4F4F4"/>
</svg>
